<?xml version="1.0" encoding="utf-8"?>
<!-- Generator: Adobe Illustrator 24.0.0, SVG Export Plug-In . SVG Version: 6.00 Build 0)  -->
<svg version="1.1" id="Layer_1" xmlns="http://www.w3.org/2000/svg" xmlns:xlink="http://www.w3.org/1999/xlink" x="0px" y="0px"
	 viewBox="0 0 170 60" style="enable-background:new 0 0 170 60;" xml:space="preserve">
<style type="text/css">
	.st0{fill:#211F30;}
	.st1{display:none;}
	.st2{display:inline;fill:#5F6060;}
	.st3{display:inline;}
	.st4{fill:url(#SVGID_1_);}
	.st5{fill:url(#SVGID_2_);}
	.st6{fill:url(#SVGID_3_);}
	.st7{fill:url(#SVGID_4_);}
	.st8{fill:url(#SVGID_5_);}
	.st9{fill:none;stroke:#C51F4B;stroke-width:0.5;stroke-miterlimit:10;}
	.st10{fill:none;stroke:#FEF492;stroke-width:0.5;stroke-miterlimit:10;}
	.st11{fill:none;stroke:#FBB154;stroke-width:0.5;stroke-miterlimit:10;}
	.st12{fill:none;}
	.st13{display:none;fill:url(#SVGID_6_);}
	.st14{display:none;fill:url(#SVGID_7_);}
	.st15{display:none;fill:url(#SVGID_8_);}
	.st16{display:none;fill:url(#SVGID_9_);}
	.st17{display:none;fill:none;stroke:#FFF68E;stroke-width:0.1;stroke-miterlimit:10;}
	.st18{fill:#020202;}
</style>
<g>
	<path class="st0" d="M59,27.1l-2.2,1.1c-0.4-0.6-0.8-1-1.2-1.2s-0.9-0.3-1.5-0.3c-0.7,0-1.4,0.2-1.9,0.6c-0.5,0.4-0.7,0.8-0.7,1.4
		c0,0.8,0.6,1.4,1.9,1.9l1.8,0.6c1.4,0.5,2.5,1.2,3.2,1.9c0.7,0.7,1,1.7,1,2.8c0,1.5-0.5,2.7-1.6,3.6c-1.1,1-2.5,1.4-4.1,1.4
		c-1.5,0-2.8-0.4-3.8-1.2s-1.6-2-1.9-3.4l2.7-0.5c0.1,0.9,0.3,1.6,0.6,1.9c0.6,0.7,1.4,1,2.4,1c0.8,0,1.5-0.2,2.1-0.8
		s0.8-1.1,0.8-1.9c0-0.3,0-0.6-0.1-0.8c-0.1-0.2-0.2-0.5-0.5-0.7c-0.2-0.2-0.5-0.4-0.8-0.6s-0.7-0.4-1.2-0.5l-1.7-0.6
		c-2.4-0.9-3.7-2.3-3.7-4c0-1.2,0.5-2.2,1.5-3s2.3-1.2,3.8-1.2C56.3,24.4,57.9,25.3,59,27.1z"/>
	<path class="st0" d="M65.4,24.8v15.9h-2.7V24.8H65.4z"/>
	<path class="st0" d="M70.6,24.8l4.9,11l5-11h2.9l-8,17.1l-7.8-17.1H70.6z"/>
	<path class="st0" d="M92.4,40.6l3.8-17.1l6.1,12.3l6.3-12.3l3.4,17.1h-2.8l-1.7-9.6l-5.3,10.3L97.1,31l-1.9,9.6L92.4,40.6
		L92.4,40.6z"/>
	<path class="st0" d="M125.6,27h-7.2v3.8h6.9V33h-6.9v5.4h7.2v2.3h-9.8V24.8h9.8V27z"/>
	<path class="st0" d="M129.1,40.6V24.8h3.7c1.8,0,3.2,0.2,4.3,0.5s2.1,0.8,3,1.6c1.8,1.5,2.8,3.5,2.8,5.9c0,2.4-1,4.4-2.9,5.9
		c-1,0.8-2,1.3-3,1.6c-1,0.3-2.4,0.4-4.2,0.4L129.1,40.6L129.1,40.6z M131.8,38.4h1.2c1.2,0,2.2-0.1,3-0.3c0.8-0.2,1.5-0.6,2.2-1.1
		c1.3-1.1,2-2.5,2-4.2c0-1.7-0.7-3.1-2-4.2c-1.2-1-2.9-1.4-5.2-1.4h-1.2V38.4z"/>
	<path class="st0" d="M149,24.8v15.9h-2.7V24.8H149z"/>
	<path class="st0" d="M163.8,36.8h-7.6l-2,3.9h-2.9l8.8-16.9l8.5,16.9h-2.9L163.8,36.8z M162.7,34.5l-2.6-5.4l-2.8,5.4H162.7z"/>
</g>
<g class="st1">
	<path class="st2" d="M50.2,48v-7.9h2.7c0.2,0,0.4,0,0.6,0c0.2,0,0.4,0,0.6,0.1c0.2,0,0.4,0.1,0.6,0.2c0.2,0.1,0.4,0.2,0.6,0.3
		c0.3,0.2,0.5,0.4,0.6,0.7c0.2,0.3,0.3,0.6,0.4,0.9c0.1,0.3,0.2,0.6,0.2,0.9c0,0.3,0.1,0.6,0.1,0.9c0,0.3,0,0.5,0,0.8
		s-0.1,0.5-0.2,0.8c-0.1,0.3-0.2,0.5-0.3,0.7s-0.3,0.5-0.5,0.7s-0.4,0.4-0.6,0.5c-0.2,0.1-0.4,0.2-0.7,0.3S53.9,48,53.6,48
		s-0.5,0-0.8,0H50.2L50.2,48z M50.9,47.4h1.8c0.3,0,0.7,0,1-0.1c0.3,0,0.6-0.1,0.9-0.3c0.3-0.1,0.5-0.3,0.6-0.5
		c0.2-0.2,0.3-0.5,0.4-0.7c0.1-0.3,0.2-0.5,0.2-0.8s0.1-0.6,0.1-0.8c0-0.3,0-0.6-0.1-0.9c0-0.3-0.1-0.6-0.2-0.8
		c-0.1-0.3-0.2-0.5-0.4-0.7s-0.4-0.4-0.7-0.6C54.3,41.1,54,41,53.7,41s-0.6-0.1-1-0.1h-1.8V47.4z"/>
	<path class="st2" d="M58.1,41.1v-1h0.7v1H58.1z M58.1,48v-5.7h0.7V48H58.1z"/>
	<path class="st2" d="M64.8,42.4h0.7v5.1c0,0.4,0,0.7-0.1,1.1c-0.1,0.3-0.2,0.7-0.4,0.9c-0.2,0.3-0.5,0.5-0.8,0.6
		c-0.3,0.2-0.8,0.2-1.3,0.2c-0.4,0-0.8-0.1-1.1-0.2S61.2,50,61,49.8s-0.3-0.3-0.4-0.5c-0.1-0.2-0.2-0.4-0.2-0.5h0.7
		c0.1,0.2,0.1,0.4,0.2,0.5c0.1,0.1,0.2,0.2,0.4,0.3s0.3,0.1,0.5,0.2c0.2,0,0.4,0,0.6,0c0.4,0,0.8-0.1,1.1-0.2
		c0.3-0.2,0.5-0.4,0.6-0.6c0.1-0.2,0.2-0.5,0.3-0.8c0-0.3,0.1-0.6,0.1-1c-0.2,0.4-0.5,0.6-0.9,0.8s-0.8,0.3-1.2,0.3
		s-0.8-0.1-1.1-0.2c-0.3-0.2-0.6-0.4-0.8-0.7s-0.4-0.6-0.5-1s-0.2-0.7-0.2-1.1c0-0.4,0-0.8,0.1-1.2s0.2-0.7,0.5-1
		c0.2-0.3,0.5-0.5,0.8-0.6c0.3-0.2,0.7-0.2,1.2-0.2c0.2,0,0.4,0,0.6,0.1c0.2,0.1,0.4,0.1,0.6,0.2c0.2,0.1,0.3,0.2,0.5,0.4
		s0.3,0.3,0.4,0.5l0,0L64.8,42.4L64.8,42.4z M64.8,45.2c0-0.3,0-0.7-0.1-1s-0.2-0.6-0.4-0.8c-0.2-0.2-0.4-0.4-0.6-0.5
		c-0.2-0.1-0.5-0.2-0.8-0.2s-0.5,0-0.8,0.1c-0.2,0.1-0.4,0.2-0.6,0.4c-0.2,0.2-0.3,0.4-0.4,0.7C61,44.3,61,44.7,61,45
		c0,0.4,0,0.7,0.1,1s0.2,0.6,0.4,0.8s0.4,0.4,0.6,0.6c0.2,0.1,0.5,0.2,0.9,0.2c0.3,0,0.6-0.1,0.8-0.2c0.2-0.1,0.4-0.3,0.6-0.5
		c0.2-0.2,0.3-0.5,0.4-0.8C64.8,45.8,64.8,45.5,64.8,45.2z"/>
	<path class="st2" d="M67.2,41.1v-1h0.7v1H67.2z M67.2,48v-5.7h0.7V48H67.2z"/>
	<path class="st2" d="M71.6,48.1c-0.1,0-0.2,0-0.3,0.1c-0.1,0-0.3,0.1-0.4,0.1c-0.3,0-0.6-0.1-0.8-0.2c-0.2-0.2-0.3-0.5-0.3-0.9V43
		H69v-0.5h0.8v-1.6h0.7v1.6h1.1V43h-1.1v3.9c0,0.1,0,0.3,0,0.4s0,0.2,0.1,0.3c0,0.1,0.1,0.1,0.2,0.1s0.2,0,0.3,0c0.1,0,0.2,0,0.3,0
		c0.1,0,0.2,0,0.3-0.1L71.6,48.1L71.6,48.1z"/>
	<path class="st2" d="M75.2,44.7c0.1,0,0.3,0,0.4-0.1c0.2,0,0.3-0.1,0.4-0.1c0.1-0.1,0.2-0.1,0.2-0.3c0-0.1,0-0.2,0-0.3
		c0-0.3-0.1-0.6-0.3-0.8c-0.2-0.2-0.6-0.3-1.1-0.3c-0.2,0-0.4,0-0.6,0.1c-0.2,0-0.4,0.1-0.5,0.2c-0.1,0.1-0.3,0.2-0.4,0.4
		s-0.2,0.4-0.2,0.6h-0.7c0-0.3,0.1-0.6,0.2-0.9c0.1-0.2,0.3-0.4,0.5-0.6c0.2-0.2,0.4-0.3,0.7-0.3c0.3-0.1,0.6-0.1,0.9-0.1
		s0.6,0,0.8,0.1c0.3,0.1,0.5,0.2,0.7,0.3s0.3,0.3,0.4,0.5C77,43.4,77,43.6,77,44v3.1c0,0.3,0,0.4,0.1,0.5s0.3,0.1,0.6,0V48
		c-0.1,0-0.1,0-0.2,0.1c-0.1,0-0.2,0-0.3,0c-0.1,0-0.2,0-0.3,0c-0.1,0-0.2,0-0.3-0.1c-0.1-0.1-0.1-0.1-0.2-0.2
		c0-0.1-0.1-0.2-0.1-0.3s0-0.2,0-0.3c-0.3,0.3-0.6,0.5-1,0.7s-0.7,0.2-1.2,0.2c-0.2,0-0.5,0-0.7-0.1s-0.4-0.2-0.6-0.3
		s-0.3-0.3-0.4-0.5s-0.2-0.4-0.2-0.7c0-1,0.7-1.5,2-1.7L75.2,44.7z M76.4,45.1c-0.3,0.1-0.6,0.2-0.8,0.2c-0.3,0-0.6,0.1-0.9,0.1
		c-0.5,0-0.9,0.2-1.2,0.3c-0.3,0.2-0.4,0.5-0.4,0.9c0,0.2,0,0.3,0.1,0.5c0.1,0.1,0.2,0.2,0.3,0.3c0.1,0.1,0.2,0.1,0.4,0.2
		s0.3,0.1,0.5,0.1c0.3,0,0.5,0,0.8-0.1c0.2-0.1,0.5-0.2,0.7-0.3s0.3-0.3,0.5-0.5c0.1-0.2,0.2-0.5,0.2-0.7L76.4,45.1L76.4,45.1z"/>
	<path class="st2" d="M78.8,48v-7.9h0.7V48H78.8z"/>
	<path class="st2" d="M83.6,48l3.1-7.9h0.8l3,7.9h-0.8l-0.9-2.5h-3.6L84.4,48H83.6z M85.6,44.9h3.1l-1.6-4.2L85.6,44.9z"/>
	<path class="st2" d="M95.9,42.4h0.7v5.1c0,0.4,0,0.7-0.1,1.1c-0.1,0.3-0.2,0.7-0.4,0.9c-0.2,0.3-0.5,0.5-0.8,0.6
		c-0.3,0.2-0.8,0.2-1.3,0.2c-0.4,0-0.8-0.1-1.1-0.2c-0.3-0.1-0.5-0.2-0.7-0.4s-0.3-0.3-0.4-0.5s-0.2-0.4-0.2-0.5h0.7
		c0.1,0.2,0.1,0.4,0.2,0.5s0.2,0.2,0.4,0.3s0.3,0.1,0.5,0.2c0.2,0,0.4,0,0.6,0c0.4,0,0.8-0.1,1.1-0.2c0.3-0.2,0.5-0.4,0.6-0.6
		c0.1-0.2,0.2-0.5,0.3-0.8c0-0.3,0.1-0.6,0-1c-0.2,0.4-0.5,0.6-0.9,0.8s-0.8,0.3-1.2,0.3c-0.4,0-0.8-0.1-1.1-0.2
		c-0.3-0.2-0.6-0.4-0.8-0.7c-0.2-0.3-0.4-0.6-0.5-1s-0.2-0.7-0.2-1.1c0-0.4,0-0.8,0.1-1.2s0.2-0.7,0.5-1c0.2-0.3,0.5-0.5,0.8-0.6
		c0.3-0.2,0.7-0.2,1.2-0.2c0.2,0,0.4,0,0.6,0.1s0.4,0.1,0.6,0.2s0.3,0.2,0.5,0.4s0.3,0.3,0.4,0.5l0,0L95.9,42.4L95.9,42.4z
		 M95.9,45.2c0-0.3,0-0.7-0.1-1s-0.2-0.6-0.4-0.8c-0.2-0.2-0.4-0.4-0.6-0.5s-0.5-0.2-0.8-0.2s-0.5,0-0.8,0.1
		c-0.2,0.1-0.4,0.2-0.6,0.4s-0.3,0.4-0.4,0.7s-0.1,0.6-0.1,1s0,0.7,0.1,1s0.2,0.6,0.4,0.8c0.2,0.2,0.4,0.4,0.6,0.6s0.5,0.2,0.9,0.2
		c0.3,0,0.6-0.1,0.8-0.2c0.2-0.1,0.4-0.3,0.6-0.5s0.3-0.5,0.4-0.8C95.9,45.8,95.9,45.5,95.9,45.2z"/>
	<path class="st2" d="M98.7,45.3c0,0.3,0,0.6,0.1,0.9c0.1,0.3,0.2,0.5,0.4,0.7c0.2,0.2,0.4,0.4,0.6,0.5s0.5,0.2,0.8,0.2
		c0.4,0,0.8-0.1,1.1-0.3s0.5-0.5,0.6-1h0.7c-0.1,0.3-0.2,0.5-0.3,0.8s-0.3,0.4-0.5,0.6c-0.2,0.2-0.4,0.3-0.7,0.4
		c-0.3,0.1-0.6,0.1-0.9,0.1c-0.5,0-0.8-0.1-1.2-0.2c-0.3-0.2-0.6-0.4-0.8-0.6c-0.2-0.3-0.4-0.6-0.5-0.9C98,46,98,45.6,98,45.2
		c0-0.4,0.1-0.8,0.2-1.2s0.3-0.7,0.5-1s0.5-0.5,0.8-0.6c0.3-0.2,0.7-0.2,1.1-0.2c0.8,0,1.4,0.3,1.8,0.8s0.7,1.3,0.7,2.3H98.7
		L98.7,45.3z M102.4,44.8c0-0.3,0-0.5-0.1-0.8c-0.1-0.2-0.2-0.5-0.3-0.6c-0.2-0.2-0.3-0.3-0.6-0.4c-0.2-0.1-0.5-0.2-0.8-0.2
		s-0.6,0.1-0.8,0.2s-0.4,0.3-0.6,0.4c-0.2,0.2-0.3,0.4-0.4,0.6s-0.2,0.5-0.2,0.8H102.4z"/>
	<path class="st2" d="M105,48h-0.7v-5.7h0.7v0.8c0.3-0.3,0.5-0.5,0.8-0.7s0.6-0.3,1-0.3s0.7,0.1,1,0.2c0.3,0.1,0.6,0.3,0.8,0.6
		c0.1,0.2,0.2,0.4,0.2,0.6c0,0.2,0,0.4,0,0.7V48h-0.7v-3.7c0-0.5-0.1-0.9-0.3-1.2s-0.6-0.4-1.1-0.4c-0.2,0-0.4,0-0.6,0.1
		s-0.3,0.1-0.5,0.2c-0.1,0.1-0.3,0.2-0.3,0.4s-0.2,0.3-0.2,0.4c-0.1,0.2-0.1,0.4-0.1,0.5c0,0.2,0,0.4,0,0.5L105,48L105,48z"/>
	<path class="st2" d="M114.5,44.1c-0.1-0.4-0.3-0.8-0.6-1c-0.3-0.2-0.6-0.4-1.1-0.4c-0.3,0-0.6,0.1-0.9,0.2
		c-0.2,0.1-0.4,0.3-0.6,0.6c-0.2,0.2-0.3,0.5-0.3,0.8c-0.1,0.3-0.1,0.6-0.1,0.9c0,0.3,0,0.6,0.1,0.9s0.2,0.5,0.3,0.8
		s0.4,0.4,0.6,0.5s0.5,0.2,0.9,0.2c0.5,0,0.9-0.1,1.2-0.4c0.3-0.3,0.5-0.6,0.6-1.1h0.7c-0.1,0.3-0.2,0.6-0.3,0.9
		c-0.1,0.3-0.3,0.5-0.5,0.7s-0.4,0.3-0.7,0.4c-0.3,0.1-0.6,0.2-1,0.2c-0.5,0-0.8-0.1-1.2-0.2c-0.3-0.2-0.6-0.4-0.8-0.6
		c-0.2-0.3-0.4-0.6-0.5-1s-0.2-0.8-0.2-1.2s0.1-0.8,0.2-1.1c0.1-0.4,0.3-0.7,0.5-1s0.5-0.5,0.8-0.7s0.7-0.2,1.1-0.2
		c0.7,0,1.2,0.2,1.6,0.5s0.7,0.8,0.8,1.5L114.5,44.1L114.5,44.1z"/>
	<path class="st2" d="M116.5,49.6c0.1,0,0.2,0,0.3,0c0.1,0,0.2,0,0.3,0c0.2,0,0.3-0.1,0.4-0.2c0.1-0.1,0.2-0.3,0.3-0.4
		s0.1-0.3,0.2-0.5s0.1-0.3,0.2-0.5l-2.2-5.7h0.7l1.8,4.9l1.8-4.9h0.7l-2,5.7c-0.1,0.4-0.3,0.7-0.4,1s-0.2,0.5-0.4,0.7
		c-0.1,0.2-0.3,0.4-0.4,0.5c-0.2,0.1-0.4,0.2-0.6,0.2c-0.1,0-0.2,0-0.3,0c-0.1,0-0.2,0-0.3-0.1C116.5,50.2,116.5,49.6,116.5,49.6z"
		/>
</g>
<g class="st1">
	<g class="st3">
		<g>
			
				<linearGradient id="SVGID_1_" gradientUnits="userSpaceOnUse" x1="-2094.6755" y1="-947.8555" x2="-2094.6755" y2="-914.8341" gradientTransform="matrix(-0.9999 1.670000e-02 -1.670000e-02 -0.9999 -2087.5933 -864.0318)">
				<stop  offset="0" style="stop-color:#C62127"/>
				<stop  offset="0.1828" style="stop-color:#C62127"/>
				<stop  offset="1" style="stop-color:#FBB154"/>
			</linearGradient>
			<polygon class="st4" points="41.2,15.4 22.7,48.7 3.1,16 			"/>
			
				<linearGradient id="SVGID_2_" gradientUnits="userSpaceOnUse" x1="-2098.9255" y1="-914.8226" x2="-2098.9255" y2="-933.3333" gradientTransform="matrix(-0.9999 1.670000e-02 -1.670000e-02 -0.9999 -2087.5933 -864.0318)">
				<stop  offset="0" style="stop-color:#C51F4B"/>
				<stop  offset="0.1563" style="stop-color:#BD1E4A"/>
				<stop  offset="0.4081" style="stop-color:#A61D45"/>
				<stop  offset="0.7221" style="stop-color:#84183C"/>
				<stop  offset="1" style="stop-color:#640F32"/>
			</linearGradient>
			<polygon class="st5" points="41.2,15.4 21.2,34.2 11.6,15.9 			"/>
			
				<linearGradient id="SVGID_3_" gradientUnits="userSpaceOnUse" x1="-2084.5203" y1="-933.3206" x2="-2084.5203" y2="-914.8216" gradientTransform="matrix(-0.9999 1.670000e-02 -1.670000e-02 -0.9999 -2087.5933 -864.0318)">
				<stop  offset="0" style="stop-color:#FBB154"/>
				<stop  offset="0.1166" style="stop-color:#F6A955"/>
				<stop  offset="0.3094" style="stop-color:#EB9454"/>
				<stop  offset="0.5547" style="stop-color:#DE7653"/>
				<stop  offset="0.8398" style="stop-color:#CE474E"/>
				<stop  offset="1" style="stop-color:#C51F4B"/>
			</linearGradient>
			<polygon class="st6" points="21.2,34.2 3.1,16 11.6,15.9 			"/>
			
				<linearGradient id="SVGID_4_" gradientUnits="userSpaceOnUse" x1="-2105.5803" y1="-924.0363" x2="-2084.0776" y2="-924.0363" gradientTransform="matrix(-0.9999 1.670000e-02 -1.670000e-02 -0.9999 -2087.5933 -864.0318)">
				<stop  offset="0.4032" style="stop-color:#C51F4B"/>
				<stop  offset="1" style="stop-color:#640F32"/>
			</linearGradient>
			<polygon class="st7" points="21.2,34.2 33.1,15.5 11.6,15.9 			"/>
			
				<linearGradient id="SVGID_5_" gradientUnits="userSpaceOnUse" x1="-2094.6743" y1="-931.2969" x2="-2075.5952" y2="-931.2969" gradientTransform="matrix(-0.9999 1.670000e-02 -1.670000e-02 -0.9999 -2087.5933 -864.0318)">
				<stop  offset="0" style="stop-color:#8A201F"/>
				<stop  offset="0.3871" style="stop-color:#C62127"/>
				<stop  offset="1" style="stop-color:#FBB154"/>
			</linearGradient>
			<polygon class="st8" points="22.7,48.7 21.2,34.2 3.1,16 			"/>
			<polyline class="st9" points="21.2,34.2 22.8,15.7 15.5,23.3 			"/>
			<polyline class="st10" points="11.6,15.9 9.8,21.3 21.2,34.2 33.1,15.5 15.5,23.3 			"/>
			<polyline class="st11" points="28.8,37.8 21.2,34.2 17.8,40.5 			"/>
			<line class="st12" x1="21.2" y1="34.2" x2="22.8" y2="15.7"/>
		</g>
	</g>
</g>
<linearGradient id="SVGID_6_" gradientUnits="userSpaceOnUse" x1="-8295.9355" y1="1271.2919" x2="-8295.9355" y2="1305.4785" gradientTransform="matrix(-1 -3.574719e-05 -3.574719e-05 1 -8273.5908 -1256.1259)">
	<stop  offset="0" style="stop-color:#C50048"/>
	<stop  offset="0.1706" style="stop-color:#BC0146"/>
	<stop  offset="0.4456" style="stop-color:#A50540"/>
	<stop  offset="0.7887" style="stop-color:#7E0A37"/>
	<stop  offset="1" style="stop-color:#630E31"/>
</linearGradient>
<path class="st13" d="M42.2,15.5C35.6,26.9,29,38.3,22.4,49.6c-6.7-11.3-13.3-22.7-20-34.1C15.7,15.5,29,15.5,42.2,15.5z"/>
<linearGradient id="SVGID_7_" gradientUnits="userSpaceOnUse" x1="-8295.9355" y1="1290.3784" x2="-8295.9355" y2="1271.2777" gradientTransform="matrix(-1 -3.574719e-05 -3.574719e-05 1 -8273.5908 -1256.1259)">
	<stop  offset="0" style="stop-color:#C61818"/>
	<stop  offset="0.1828" style="stop-color:#C61818"/>
	<stop  offset="1" style="stop-color:#FDB153"/>
</linearGradient>
<path class="st14" d="M42.2,15.5c-13.3,0-26.5,0-39.8,0C9,21.9,15.6,28.2,22.2,34.6C28.9,28.2,35.6,21.8,42.2,15.5z"/>
<linearGradient id="SVGID_8_" gradientUnits="userSpaceOnUse" x1="-8292.7393" y1="1303.6012" x2="-8311.2119" y2="1271.6041" gradientTransform="matrix(-1 -3.574719e-05 -3.574719e-05 1 -8273.5908 -1256.1259)">
	<stop  offset="0.5373" style="stop-color:#C50048"/>
	<stop  offset="1" style="stop-color:#630E31"/>
</linearGradient>
<path class="st15" d="M22.3,34.5c0,5,0.1,10.1,0.1,15.1C29,38.3,35.6,26.9,42.2,15.5C35.6,21.8,28.9,28.2,22.3,34.5z"/>
<linearGradient id="SVGID_9_" gradientUnits="userSpaceOnUse" x1="-8305.4619" y1="1284.8593" x2="-8297.3359" y2="1270.7854" gradientTransform="matrix(-1 -3.574719e-05 -3.574719e-05 1 -8273.5908 -1256.1259)">
	<stop  offset="0.2672" style="stop-color:#E5664E"/>
	<stop  offset="0.6623" style="stop-color:#D32D4B"/>
	<stop  offset="1" style="stop-color:#C50048"/>
</linearGradient>
<path class="st16" d="M42.2,15.5c-10.7,2.5-21.4,4.9-32.1,7.4c4.1,3.9,8.1,7.8,12.2,11.7C28.9,28.2,35.6,21.8,42.2,15.5z"/>
<path class="st17" d="M42.2,15.5c-10.7,2.5-21.4,4.9-32.1,7.4c6.5,1.6,13,3.1,19.6,4.7c-2.5,2.4-4.9,4.7-7.4,7.1
	c0,4.9,0.1,9.8,0.1,14.7"/>
<g transform="matrix(-1 -1.22465e-16 1.22465e-16 -1 512 512)">
	<g>
		<g>
			<path class="st18" d="M507.9,493.8L507.9,493.8c-2.6-5.4-7.1-13.1-11-19.9c-2-3.5-4-6.9-5.4-9.4c-0.7-1.2-1.8-1.9-3.1-1.9
				c-1.3,0-2.5,0.7-3.1,1.9c-1.4,2.5-3.3,5.9-5.4,9.4c-3.9,6.8-8.3,14.5-11,19.9c-0.2,0.5-0.4,1-0.4,1.5c0,2,1.6,3.6,3.5,3.6h16.3
				h16.3c2,0,3.5-1.6,3.5-3.6C508.2,494.9,508.1,494.3,507.9,493.8z M504.7,497.3h-16.3h-16.3c-1,0-1.9-0.9-1.9-1.9
				c0-0.3,0.1-0.6,0.2-0.8c2.6-5.4,7-13,10.9-19.8c2-3.6,4-6.9,5.4-9.5c0.7-1.3,2.6-1.3,3.4,0c1.4,2.6,3.3,5.9,5.4,9.5
				c3.9,6.8,8.3,14.4,10.9,19.8c0.1,0.3,0.2,0.5,0.2,0.8C506.6,496.4,505.7,497.3,504.7,497.3z"/>
		</g>
	</g>
</g>
</svg>
