<svg width="500" height="170" viewBox="0 0 500 170" fill="none" xmlns="http://www.w3.org/2000/svg">
<path d="M292.505 52.2003H278.784L257.907 77.9097H257.124L235.755 52.2003H222.035L248.497 84.2385V85.0188L222.035 117.446H235.755L256.729 91.2511H257.515L278.784 117.446H292.505L266.042 85.1154V84.3351L292.505 52.2003Z" fill="white"/>
<path d="M328.183 90.9771L323.595 102.716H322.815L318.031 91.0763L305.628 65.252H293.812L317.743 113.863L316.566 116.412C315.849 118.041 314.956 119.2 313.881 119.886C312.805 120.57 311.195 120.914 309.047 120.914H302.759V130.5H306.507C309.827 130.5 312.691 130.158 315.102 129.472C317.509 128.788 319.594 127.614 321.353 125.951C323.11 124.289 324.639 122.021 325.942 119.153L351.235 65.2546H339.615L328.189 90.9823L328.183 90.9771Z" fill="white"/>
<path d="M370.805 52.2003H360.365V117.446H370.805V52.2003Z" fill="white"/>
<path d="M424.067 68.53C419.873 66.3429 414.935 65.2494 409.253 65.2494C403.571 65.2494 398.818 66.3429 394.59 68.53C390.362 70.717 387.081 73.7653 384.748 77.667C382.414 81.5713 381.247 86.1489 381.247 91.3973C381.247 96.6456 382.414 101.038 384.748 104.976C387.081 108.914 390.362 111.978 394.59 114.163C398.818 116.35 403.704 117.443 409.253 117.443C414.802 117.443 419.873 116.35 424.067 114.163C428.261 111.976 431.527 108.912 433.86 104.976C436.193 101.038 437.36 96.5125 437.36 91.3973C437.36 86.282 436.193 81.5713 433.86 77.667C431.527 73.7653 428.261 70.717 424.067 68.53ZM422.546 103.564C419.839 106.357 415.407 107.753 409.253 107.753C403.098 107.753 398.766 106.357 396.062 103.564C393.355 100.772 392.003 96.7161 392.003 91.3973C392.003 86.0784 393.355 81.9914 396.062 79.1311C398.766 76.2707 403.166 74.8405 409.253 74.8405C415.339 74.8405 419.839 76.2707 422.546 79.1311C425.25 81.9914 426.604 86.081 426.604 91.3973C426.604 96.7135 425.25 100.772 422.546 103.564Z" fill="white"/>
<path d="M500 87.2581V86.2481C500 82.0071 498.87 78.322 496.612 75.1928C494.352 72.0637 491.267 69.6235 487.357 67.8723C483.445 66.1237 478.963 65.2468 473.905 65.2468C468.375 65.2468 463.554 66.3403 459.441 68.5273C455.327 70.7144 452.14 73.7627 449.883 77.6644C447.622 81.5687 446.495 86.1463 446.495 91.3947C446.495 96.643 447.622 101.035 449.883 104.974C452.14 108.912 455.327 111.976 459.441 114.16C463.554 116.347 468.375 117.441 473.905 117.441C478.963 117.441 483.445 116.566 487.357 114.815C491.267 113.067 494.352 110.611 496.612 107.445C498.87 104.282 500 100.615 500 96.4395V95.3277H489.179V96.0349C489.179 99.9392 487.83 102.849 485.133 104.767C482.435 106.686 478.624 107.646 473.704 107.646C468.041 107.646 463.893 106.284 461.262 103.556C458.631 100.829 457.319 96.7761 457.319 91.3894C457.319 86.0028 458.634 81.8479 461.262 79.1232C463.893 76.3986 468.038 75.0336 473.704 75.0336C478.624 75.0336 482.435 75.9941 485.133 77.9123C487.83 79.8305 489.179 82.7431 489.179 86.6448V87.2502H500V87.2581Z" fill="white"/>
<path d="M176.677 0C152.576 0 126.006 30.1899 103.286 64.2243L39.012 0C39.012 0 -33.212 169.65 18.881 169.65C43.0705 169.65 68.5651 138.917 92.4805 105.629L156.553 169.65C156.553 169.65 229.216 0 176.677 0ZM20.7994 158.568C-8.43003 158.568 52.0725 65.2501 52.0725 65.2501L82.2206 95.3747C60.4271 128.796 40.1134 158.571 20.802 158.571L20.7994 158.568ZM143.493 104.4L113.577 74.5077C133.377 46.3954 153.479 11.0821 174.414 11.0821C205.225 11.0821 143.496 104.4 143.496 104.4H143.493Z" fill="#32FA8C"/>
</svg>
